# xmcd
#
# Track frame offsets:
# 150
# 16091
# 29546
# 49051
# 65820
# 83173
# 103506
# 121673
# 136750
# 159863
# 178297
# 191182
#
# Disc length: 3041 seconds
#
#
# Revision: 0
# Processed by: cddbd v1.5.1PL2 Copyright (c) Steve Scherf et al.
# Submitted via: FreeRIP 2.90 
#
DISCID=9a0bdf0c
DTITLE=Travis Mitchell Band - Forget What's Wrong
DYEAR=2005
DGENRE=Texas Country
TTITLE0=Second To None
TTITLE1=Texas Girls
TTITLE2=Gone
TTITLE3=I'll Be Fine
TTITLE4=I'll Try
TTITLE5=Forever In Love
TTITLE6=Bitter
TTITLE7=Forget What's Wrong
TTITLE8=The Getaway
TTITLE9=The Way You Never
TTITLE10=Sounds Of The River
TTITLE11=By My Side
EXTD=
EXTT0=
EXTT1=
EXTT2=
EXTT3=
EXTT4=
EXTT5=
EXTT6=
EXTT7=
EXTT8=
EXTT9=
EXTT10=
EXTT11=
PLAYORDER=
